#!OML:ASF F:\VICON\USERDATA\INSTALL\rory3\rory3.ASF
:FULLY-SPECIFIED
:DEGREES
270
root 0.837178 17.9058 19.2633 -2.56729 -5.70001 -2.65187
lowerback 11.1901 2.40415 2.44714
upperback -0.496096 3.58533 0.876992
thorax -6.7099 1.68388 -1.05219
lowerneck -17.1468 -2.86545 -1.1891
upperneck 26.2216 -3.6777 -0.201328
head 11.3856 -1.80781 -0.413865
rclavicle -1.90049e-014 -5.46658e-016
rhumerus -23.2286 -20.5579 -79.6713
rradius 29.652
rwrist 2.0887
rhand -16.9525 21.3207
rfingers 7.12502
rthumb 9.28115 -8.45497
lclavicle -1.90049e-014 -5.46658e-016
lhumerus -36.5438 6.37161 80.2694
lradius 22.1789
lwrist 4.94702
lhand -25.4016 18.8687
lfingers 7.12502
lthumb 1.12367 48.8455
rfemur -0.557994 3.68323 26.108
rtibia 56.3127
rfoot 6.92427 3.61409
rtoes 18.5806
lfemur -19.6475 -1.21386 -19.7664
ltibia 27.4346
lfoot -3.23263 -4.26839
ltoes 0.229777
271
root 0.85206 17.9189 19.4337 -2.57789 -5.88855 -2.24774
lowerback 11.1972 2.41104 2.08446
upperback -0.459573 3.53927 0.7848
thorax -6.69206 1.67289 -0.938005
lowerneck -17.3975 -2.80065 -1.10443
upperneck 26.1663 -3.54519 -0.414779
head 11.4071 -1.76628 -0.490298
rclavicle -7.85044e-016 5.2181e-015
rhumerus -23.1902 -20.7982 -79.6615
rradius 29.0302
rwrist 2.43578
rhand -16.7164 21.647
rfingers 7.12502
rthumb 9.50903 -8.11848
lclavicle -7.85044e-016 5.2181e-015
lhumerus -36.2075 6.11882 80.4
lradius 22.2306
lwrist 5.27818
lhand -25.4955 18.8242
lfingers 7.12502
lthumb 1.03298 48.8014
rfemur -1.96923 3.5979 25.4637
rtibia 58.5207
rfoot 5.68089 2.5318
rtoes 17.2496
lfemur -19.0685 -1.20956 -20.3396
ltibia 27.5012
lfoot -3.64558 -3.92435
ltoes 0.227413
272
root 0.865088 17.9357 19.6072 -2.7035 -5.95696 -1.79111
lowerback 11.244 2.36539 1.62922
upperback -0.443859 3.41261 0.693596
thorax -6.72572 1.62467 -0.760093
lowerneck -17.4004 -2.68875 -0.973636
upperneck 26.1948 -3.39513 -0.522528
head 11.4129 -1.69951 -0.529935
rclavicle -1.08462e-014 1.92821e-014
rhumerus -23.2415 -21.0666 -79.6053
rradius 28.2995
rwrist 2.81155
rhand -16.6913 22.0836
rfingers 7.12502
rthumb 9.53318 -7.68076
lclavicle -1.08462e-014 1.92821e-014
lhumerus -36.1976 5.63602 80.6078
lradius 22.5902
lwrist 5.85695
lhand -25.7398 17.6673
lfingers 7.12502
lthumb 0.797061 47.6455
rfemur -3.26394 3.38511 24.7797
rtibia 60.5415
rfoot 3.91667 0.618042
rtoes 14.1308
lfemur -18.352 -1.3509 -20.9746
ltibia 27.5631
lfoot -4.0309 -3.71395
ltoes 1.56924
273
root 0.874793 17.9483 19.7825 -2.89807 -5.90373 -1.44883
lowerback 11.376 2.26139 1.24542
upperback -0.464759 3.22335 0.657334
thorax -6.8454 1.54316 -0.558361
lowerneck -17.2352 -2.61768 -1.06213
upperneck 26.2587 -3.28487 -0.473809
head 11.4072 -1.65315 -0.479019
rclavicle -4.63277e-014 -1.44119e-014
rhumerus -23.4473 -21.0451 -79.5489
rradius 27.7525
rwrist 3.02752
rhand -16.5202 22.1164
rfingers 7.12502
rthumb 9.69829 -7.64029
lclavicle -4.63277e-014 -1.44119e-014
lhumerus -36.346 5.16773 80.7658
lradius 23.0092
lwrist 6.42533
lhand -25.8007 16.9309
lfingers 7.12502
lthumb 0.738269 46.9094
rfemur -4.49887 3.0253 24.2606
rtibia 62.3748
rfoot 2.43539 -1.46597
rtoes 11.9341
lfemur -17.4885 -1.49282 -21.5144
ltibia 27.606
lfoot -4.58896 -3.60435
ltoes 1.57272
274
root 0.883059 17.9498 19.9605 -3.05301 -5.75775 -1.24624
lowerback 11.296 2.13844 0.97205
upperback -0.422989 3.02406 0.701454
thorax -6.77507 1.45723 -0.320777
lowerneck -16.8742 -2.53134 -1.12799
upperneck 25.9717 -3.12087 -0.557006
head 11.226 -1.59871 -0.46512
rclavicle 2.18974e-015 -4.87022e-015
rhumerus -23.6732 -21.0456 -79.3951
rradius 27.2675
rwrist 3.44339
rhand -16.6378 22.411
rfingers 7.12502
rthumb 9.58479 -7.35093
lclavicle 2.18974e-015 -4.87022e-015
lhumerus -36.2793 4.9346 80.9483
lradius 23.1028
lwrist 6.84597
lhand -25.9057 17.8812
lfingers 7.12502
lthumb 0.636863 47.86
rfemur -5.6076 2.45138 23.8703
rtibia 63.9785
rfoot 1.29589 -2.85425
rtoes 11.9012
lfemur -16.6719 -1.66632 -21.9068
ltibia 27.618
lfoot -5.28518 -3.03605
ltoes -0.0790955
275
root 0.888204 17.9653 20.1336 -3.06914 -5.70701 -1.19448
lowerback 11.1339 2.0908 0.895011
upperback -0.289547 2.94845 0.740349
thorax -6.54833 1.42615 -0.214396
lowerneck -16.9708 -2.50752 -1.27069
upperneck 25.8006 -3.05308 -0.516693
head 11.184 -1.57705 -0.416139
rclavicle 2.26863e-014 4.57205e-015
rhumerus -23.7561 -21.6476 -79.1936
rradius 26.8454
rwrist 4.21216
rhand -16.4858 22.5001
rfingers 7.12502
rthumb 9.73147 -7.25508
lclavicle 2.26863e-014 4.57205e-015
lhumerus -35.7679 4.61653 81.134
lradius 23.0203
lwrist 7.28862
lhand -26.1324 18.6845
lfingers 7.12502
lthumb 0.41784 48.6638
rfemur -6.92428 2.03038 23.685
rtibia 65.3612
rfoot 0.58589 -3.84057
rtoes 13.4692
lfemur -16.059 -1.71467 -22.0968
ltibia 27.5755
lfoot -5.62576 -2.52554
ltoes -0.105118
276
root 0.894454 17.9849 20.2941 -3.19777 -5.66564 -1.15005
lowerback 11.4818 2.02407 0.849489
upperback -0.307411 2.85963 0.756348
thorax -6.76759 1.38202 -0.171307
lowerneck -17.0764 -2.5138 -1.13729
upperneck 25.7811 -3.01075 -0.830885
head 11.1891 -1.5846 -0.548157
rclavicle 3.3517e-014 1.75924e-014
rhumerus -24.0319 -22.0145 -79.0111
rradius 26.4815
rwrist 4.73757
rhand -16.3348 22.2129
rfingers 7.12502
rthumb 9.87717 -7.53537
lclavicle 3.3517e-014 1.75924e-014
lhumerus -35.5352 4.5507 81.0805
lradius 23.0946
lwrist 7.11931
lhand -26.2096 19.2298
lfingers 7.12502
lthumb 0.343293 49.2093
rfemur -8.2465 1.70964 23.5575
rtibia 66.5699
rfoot -0.180372 -4.94253
rtoes 13.7323
lfemur -15.3457 -1.77734 -22.2612
ltibia 27.5046
lfoot -6.05515 -2.36451
ltoes -0.295232
277
root 0.904373 17.9957 20.457 -3.36124 -5.59958 -0.834452
lowerback 11.6822 1.92636 0.52401
upperback -0.312429 2.68648 0.74066
thorax -6.90137 1.30717 0.0171393
lowerneck -17.0499 -2.46233 -1.0656
upperneck 25.7796 -2.8984 -1.04739
head 11.1781 -1.55456 -0.622266
rclavicle -1.41758e-014 1.51076e-014
rhumerus -24.2222 -22.3534 -78.7934
rradius 25.9778
rwrist 5.39687
rhand -16.2217 22.1842
rfingers 7.12502
rthumb 9.98623 -7.55891
lclavicle -1.41758e-014 1.51076e-014
lhumerus -35.563 4.42804 81.1027
lradius 23.5014
lwrist 7.17057
lhand -26.0917 19.9027
lfingers 7.12502
lthumb 0.457177 49.882
rfemur -9.4341 1.33181 23.0721
rtibia 67.6062
rfoot -1.35383 -6.06664
rtoes 12.4166
lfemur -14.5061 -1.92968 -22.7381
ltibia 27.459
lfoot -6.48477 -2.04215
ltoes 0.109769
278
root 0.913462 18.0025 20.6173 -3.43003 -5.47353 -0.693538
lowerback 11.7411 1.79261 0.380098
upperback -0.356831 2.4906 0.751582
thorax -6.98855 1.21626 0.14085
lowerneck -16.8958 -2.3511 -1.08065
upperneck 25.8421 -2.73014 -1.07812
head 11.1713 -1.48423 -0.605014
rclavicle -9.87711e-016 9.93923e-015
rhumerus -24.5911 -22.86 -78.5593
rradius 25.7345
rwrist 6.58074
rhand -16.0489 21.9533
rfingers 7.12502
rthumb 10.153 -7.78172
lclavicle -9.87711e-016 9.93923e-015
lhumerus -35.5894 4.44528 81.0459
lradius 23.7173
lwrist 7.22783
lhand -26.516 19.2658
lfingers 7.12502
lthumb 0.0473328 49.2455
rfemur -10.7578 0.861295 22.79
rtibia 68.473
rfoot -2.18688 -6.89475
rtoes 11.7929
lfemur -13.7787 -2.0236 -23.0246
ltibia 27.411
lfoot -6.9318 -1.76695
ltoes 0.413549
279
root 0.916694 18.0092 20.7789 -3.37791 -5.5705 -0.935072
lowerback 11.7305 1.7517 0.604343
upperback -0.419472 2.47415 0.836357
thorax -7.04368 1.20145 0.106158
lowerneck -16.8571 -2.33403 -1.05895
upperneck 25.9361 -2.69426 -1.14634
head 11.1977 -1.47476 -0.628982
rclavicle -2.03226e-014 -6.16232e-015
rhumerus -25.0935 -23.3824 -78.2915
rradius 25.7869
rwrist 7.75703
rhand -15.788 21.3278
rfingers 7.12502
rthumb 10.4047 -8.3948
lclavicle -2.03226e-014 -6.16232e-015
lhumerus -35.4441 4.41771 80.9349
lradius 23.8848
lwrist 7.06334
lhand -26.3649 19.5827
lfingers 7.12502
lthumb 0.193312 49.5623
rfemur -12.1425 0.750935 23.0381
rtibia 69.1288
rfoot -2.78358 -7.4483
rtoes 11.6772
lfemur -13.1792 -1.90103 -22.8391
ltibia 27.3156
lfoot -7.33581 -1.5857
ltoes 0.0731485
280
root 0.920149 18.0158 20.9497 -3.5368 -5.57454 -0.870708
lowerback 11.6959 1.70375 0.535335
upperback -0.303094 2.40091 0.869698
thorax -6.90436 1.16966 0.196058
lowerneck -16.8128 -2.36008 -1.11977
upperneck 25.7971 -2.70528 -1.17848
head 11.1372 -1.49011 -0.629554
rclavicle 2.93114e-014 1.51076e-014
rhumerus -25.3151 -23.6931 -78.0535
rradius 25.6751
rwrist 8.15167
rhand -15.3236 20.0302
rfingers 7.12502
rthumb 10.8526 -9.66933
lclavicle 2.93114e-014 1.51076e-014
lhumerus -35.1896 4.50666 80.8172
lradius 24.2653
lwrist 6.35326
lhand -25.1309 21.3263
lfingers 7.12502
lthumb 1.3851 51.3015
rfemur -13.0715 0.515871 22.9008
rtibia 69.5577
rfoot -3.66115 -7.70288
rtoes 10.308
lfemur -12.3186 -1.76498 -23.0237
ltibia 27.2382
lfoot -7.82939 -1.4691
ltoes 0.420337
281
root 0.930074 18.0205 21.1229 -3.67545 -5.26586 -0.397395
lowerback 11.6122 1.54038 0.149871
upperback -0.208048 2.12224 0.77542
thorax -6.76533 1.04583 0.366056
lowerneck -16.6564 -2.26334 -1.23809
upperneck 25.5657 -2.56804 -1.06442
head 11.0235 -1.42532 -0.543369
rclavicle -3.45233e-014 -2.26615e-014
rhumerus -25.5514 -24.3774 -77.7367
rradius 25.3908
rwrist 8.44852
rhand -14.6961 18.987
rfingers 7.12502
rthumb 11.4579 -10.6799
lclavicle -3.45233e-014 -2.26615e-014
lhumerus -35.0305 4.45404 80.7751
lradius 24.5586
lwrist 6.06245
lhand -25.1144 21.3457
lfingers 7.12502
lthumb 1.40108 51.3209
rfemur -14.0209 -0.0699949 22.1949
rtibia 69.8406
rfoot -4.33888 -7.60473
rtoes 9.30735
lfemur -11.4936 -1.81935 -23.7133
ltibia 27.1481
lfoot -8.44146 -1.3964
ltoes 0.232427
282
root 0.933736 18.0244 21.2837 -3.64058 -5.09833 -0.446154
lowerback 11.525 1.38293 0.146226
upperback -0.16055 1.9165 0.852853
thorax -6.66675 0.947056 0.487877
lowerneck -16.7364 -2.17149 -1.22327
upperneck 25.5781 -2.43301 -1.09277
head 11.0433 -1.36624 -0.53816
rclavicle -6.37975e-015 -5.36719e-015
rhumerus -25.8373 -24.7182 -77.553
rradius 25.3293
rwrist 8.50257
rhand -14.4183 18.5074
rfingers 7.12502
rthumb 11.7257 -11.1444
lclavicle -6.37975e-015 -5.36719e-015
lhumerus -34.7182 4.12537 80.9054
lradius 24.588
lwrist 6.91782
lhand -26.1516 19.7163
lfingers 7.12502
lthumb 0.399336 49.6957
rfemur -15.2448 -0.411326 22.2077
rtibia 69.9522
rfoot -4.60414 -7.74765
rtoes 9.46573
lfemur -10.9524 -2.02921 -23.7583
ltibia 27.0387
lfoot -8.686 -1.22453
ltoes 0.625283
283
root 0.932179 18.0242 21.4396 -3.7724 -5.11973 -0.475251
lowerback 11.5715 1.30325 0.0178474
upperback -0.0199848 1.79894 0.96038
thorax -6.55022 0.895509 0.694069
lowerneck -16.7457 -2.20027 -1.22609
upperneck 25.4156 -2.44684 -1.18917
head 10.983 -1.38504 -0.572806
rclavicle -1.70768e-014 1.39149e-014
rhumerus -25.9914 -24.6066 -77.5358
rradius 25.199
rwrist 8.19211
rhand -15.075 19.2293
rfingers 7.12502
rthumb 11.0924 -10.4575
lclavicle -1.70768e-014 1.39149e-014
lhumerus -34.342 3.8103 81.0344
lradius 24.9012
lwrist 7.85675
lhand -26.0913 20.4551
lfingers 7.12502
lthumb 0.457588 50.4344
rfemur -16.262 -0.491696 22.2726
rtibia 69.9044
rfoot -5.0529 -7.85149
rtoes 9.65709
lfemur -10.2745 -1.93704 -23.796
ltibia 26.9677
lfoot -9.03272 -1.10367
ltoes 1.07175
284
root 0.931198 18.019 21.6032 -3.99059 -4.98565 -0.150111
lowerback 11.6061 1.20369 -0.398307
upperback 0.101506 1.60735 0.930742
thorax -6.44878 0.814152 0.93077
lowerneck -16.6884 -2.16828 -1.1716
upperneck 25.3198 -2.40223 -1.25012
head 10.9343 -1.36731 -0.595721
rclavicle -7.16867e-015 7.7526e-015
rhumerus -26.171 -24.8503 -77.4089
rradius 24.6932
rwrist 7.72068
rhand -15.8755 20.8671
rfingers 7.12502
rthumb 10.3202 -8.85968
lclavicle -7.16867e-015 7.7526e-015
lhumerus -34.1386 3.46023 81.0833
lradius 25.4397
lwrist 7.79786
lhand -25.5354 22.2589
lfingers 7.12502
lthumb 0.994479 52.2363
rfemur -17.0655 -0.769778 21.8926
rtibia 69.6985
rfoot -5.6389 -7.68399
rtoes 8.65909
lfemur -9.45121 -1.84128 -24.2625
ltibia 27.0539
lfoot -9.82659 -0.999939
ltoes 0.872633
